<svg width="74" height="34" viewBox="0 0 74 34" fill="none" xmlns="http://www.w3.org/2000/svg">
<path d="M0 0.0397051H5.00443C5.29936 0.0397051 5.58677 0.0359144 5.86855 0.0302285C6.15033 0.0226473 6.4246 0.020752 6.69323 0.020752C7.21547 0.020752 7.70764 0.0434957 8.16976 0.0908785C8.63188 0.138261 9.0677 0.242503 9.47723 0.4055C9.88675 0.568497 10.2737 0.811097 10.6438 1.1352C11.012 1.45929 11.3539 1.89522 11.6695 2.44296C11.9832 2.99071 12.28 3.67302 12.5543 4.49179C12.8285 5.31057 13.0878 6.29423 13.3282 7.44279V0.020752C14.0515 0.128785 14.7014 0.206493 15.2782 0.253875C15.8549 0.301258 16.4241 0.324002 16.9876 0.324002C17.5512 0.324002 18.1204 0.301258 18.6952 0.253875C19.2719 0.206493 19.9219 0.128785 20.6451 0.020752V15.2098H15.6407C15.3458 15.2098 15.0584 15.2136 14.7766 15.2193C14.4948 15.2249 14.2205 15.2287 13.9519 15.2287C13.4297 15.2287 12.9375 15.206 12.4754 15.1567C12.0133 15.1093 11.5774 15.0051 11.1679 14.8421C10.7584 14.6791 10.3695 14.4365 10.0013 14.1124C9.63314 13.7883 9.29125 13.3524 8.97566 12.8046C8.66006 12.2569 8.36513 11.5784 8.09086 10.7672C7.8166 9.95598 7.55736 8.9761 7.31691 7.82754V15.2306C6.59367 15.1226 5.9437 15.0449 5.36698 14.9975C4.79027 14.9501 4.22108 14.9255 3.65751 14.9255C3.09395 14.9255 2.52476 14.9482 1.94992 14.9975C1.37321 15.0449 0.723237 15.1226 0 15.2306V0.0397051H0Z" fill="black"/>
<path d="M22.0503 15.2099V0C23.5381 0.0947656 24.8906 0.168683 26.1098 0.223647C27.329 0.278611 28.5143 0.305145 29.6678 0.305145C30.8212 0.305145 32.0253 0.278611 33.2464 0.223647C34.4656 0.170578 35.8125 0.0947656 37.2871 0C37.1932 0.460561 37.1199 0.88132 37.0654 1.26796C37.011 1.65461 36.9847 2.02798 36.9847 2.39378C36.9847 2.75957 37.011 3.13106 37.0654 3.51012C37.1199 3.88918 37.1932 4.30804 37.2871 4.76671H29.3879V5.51725H32.7843V9.67557H29.3879V10.4261H37.2871C37.1932 10.8867 37.1199 11.3074 37.0654 11.6941C37.011 12.0807 36.9847 12.4541 36.9847 12.8199C36.9847 13.1857 37.011 13.5572 37.0654 13.9343C37.1199 14.3134 37.1932 14.7398 37.2871 15.2118C35.8125 15.1037 34.4656 15.026 33.2464 14.9787C32.0272 14.9313 30.8343 14.9066 29.6678 14.9066C28.5012 14.9066 27.329 14.9313 26.1098 14.9787C24.8906 15.026 23.5362 15.1037 22.0503 15.2118V15.2099Z" fill="black"/>
<path d="M38.6921 15.2099V0C39.4154 0.108033 40.0654 0.185741 40.6421 0.233123C41.2188 0.280506 41.788 0.305145 42.3515 0.305145C42.9151 0.305145 43.4862 0.282401 44.0704 0.233123C44.6527 0.185741 45.3065 0.108033 46.0297 0V0.162997C46.3923 0.109928 46.783 0.0682312 47.2057 0.0416969C47.6283 0.0151625 48.0923 0.00189531 48.6033 0.00189531C51.2032 0.00189531 53.1494 0.496572 54.4418 1.48213C55.7342 2.46959 56.3823 4.02375 56.3823 6.1465C56.3823 8.26925 55.7361 9.8234 54.4418 10.8109C53.1494 11.7983 51.2013 12.2911 48.6033 12.2911C48.0942 12.2911 47.6283 12.2778 47.2057 12.2513C46.783 12.2248 46.3923 12.1831 46.0297 12.13V15.2118C45.3065 15.1037 44.6527 15.026 44.0704 14.9787C43.488 14.9313 42.9151 14.9066 42.3515 14.9066C41.788 14.9066 41.2188 14.9313 40.6421 14.9787C40.0654 15.026 39.4154 15.1037 38.6921 15.2118V15.2099ZM46.0278 7.70634C46.2157 7.66654 46.4073 7.60778 46.6008 7.53386C46.7943 7.45995 46.969 7.36139 47.123 7.24009C47.2771 7.11879 47.4048 6.96527 47.5044 6.78332C47.6039 6.60137 47.6546 6.3872 47.6546 6.1446C47.6546 5.902 47.6039 5.69162 47.5044 5.51536C47.4029 5.33909 47.2771 5.19126 47.123 5.06996C46.969 4.94866 46.7943 4.8501 46.6008 4.77619C46.4054 4.70227 46.2157 4.64351 46.0278 4.60371V7.70634Z" fill="black"/>
<path d="M65.1045 0V15.2099C64.3813 15.1018 63.7313 15.0241 63.1546 14.9768C62.5779 14.9294 62.0087 14.9047 61.447 14.9047C60.8853 14.9047 60.3142 14.9294 59.7375 14.9768C59.1608 15.0241 58.5108 15.1018 57.7876 15.2099V0C58.5108 0.108033 59.1608 0.185741 59.7375 0.233123C60.3142 0.280506 60.8834 0.305145 61.447 0.305145C62.0106 0.305145 62.5798 0.282401 63.1546 0.233123C63.7313 0.185741 64.3813 0.108033 65.1045 0Z" fill="black"/>
<path d="M10.3921 25.9885C11.2356 26.2861 11.9964 26.6272 12.6727 27.012C13.349 27.3967 13.9482 27.7966 14.4723 28.2079C14.9946 28.6211 15.4473 29.04 15.8286 29.4645C16.21 29.8891 16.535 30.3003 16.8036 30.6908C17.4329 31.6365 17.8687 32.6032 18.1111 33.5906C17.3333 33.5375 16.6308 33.4996 15.9996 33.4788C15.3703 33.4579 14.7541 33.4485 14.1511 33.4485C13.5481 33.4485 12.9113 33.4579 12.282 33.4788C11.6526 33.4996 10.9482 33.5356 10.1705 33.5906C9.99578 33.2665 9.77599 32.9291 9.50736 32.5766C9.28005 32.2658 8.98888 31.917 8.63384 31.5323C8.27879 31.1476 7.84673 30.7514 7.33765 30.3458V33.5906C6.61441 33.5375 5.96068 33.4996 5.37833 33.4788C4.79598 33.4579 4.22303 33.4485 3.65947 33.4485C3.09591 33.4485 2.52671 33.4579 1.95188 33.4788C1.37516 33.4996 0.72519 33.5356 0.00195312 33.5906V18.3845C0.72519 18.4243 1.37516 18.4584 1.95188 18.4869C2.52859 18.5134 3.09778 18.5267 3.65947 18.5267C4.22115 18.5267 4.79598 18.5134 5.37833 18.4869C5.96068 18.4603 6.61441 18.4262 7.33765 18.3845V21.7923C7.84673 21.3602 8.31261 20.9413 8.73528 20.5357C9.15795 20.1301 9.52239 19.7719 9.83047 19.4611C10.193 19.082 10.5143 18.7238 10.796 18.3864C11.5193 18.4262 12.1692 18.4603 12.746 18.4888C13.3227 18.5153 13.8919 18.5286 14.4535 18.5286C15.0152 18.5286 15.5863 18.5153 16.163 18.4888C16.7397 18.4622 17.3897 18.4281 18.1129 18.3864C17.8725 19.3739 17.4367 20.3329 16.8055 21.2654C16.5368 21.671 16.2119 22.0861 15.8305 22.5125C15.4492 22.939 14.9964 23.3578 14.4742 23.7691C13.952 24.1823 13.3508 24.5765 12.6746 24.9556C11.9983 25.3346 11.2375 25.6796 10.394 25.9904L10.3921 25.9885Z" fill="black"/>
<path d="M18.4341 25.9885C18.4341 24.8798 18.682 23.8393 19.178 22.8651C19.6739 21.8928 20.3464 21.0437 21.1974 20.3197C22.0484 19.5956 23.0459 19.0252 24.1918 18.6063C25.3377 18.1874 26.5606 17.9771 27.8606 17.9771C29.1605 17.9771 30.3835 18.1874 31.5294 18.6063C32.6753 19.0252 33.6728 19.5975 34.5238 20.3197C35.3747 21.0437 36.0473 21.8909 36.5432 22.8651C37.0391 23.8393 37.2871 24.8798 37.2871 25.9885C37.2871 27.0973 37.0391 28.1378 36.5432 29.112C36.0473 30.0843 35.3747 30.9334 34.5238 31.6574C33.6728 32.3814 32.6753 32.9519 31.5294 33.3708C30.3835 33.7896 29.1605 34 27.8606 34C26.5606 34 25.3377 33.7896 24.1918 33.3708C23.0459 32.9519 22.0484 32.3814 21.1974 31.6574C20.3464 30.9353 19.672 30.0862 19.178 29.112C18.682 28.1378 18.4341 27.0973 18.4341 25.9885ZM26.4536 25.8255C26.4536 26.1098 26.57 26.3524 26.8048 26.5552C27.0397 26.758 27.3233 26.8604 27.6596 26.8604C27.9958 26.8604 28.2795 26.758 28.5143 26.5552C28.7491 26.3524 28.8656 26.1098 28.8656 25.8255C28.8656 25.5412 28.7473 25.2986 28.5143 25.0958C28.2795 24.893 27.994 24.7926 27.6596 24.7926C27.3252 24.7926 27.0397 24.8949 26.8048 25.0958C26.57 25.2967 26.4536 25.5412 26.4536 25.8255Z" fill="black"/>
<path d="M49.8075 18.4053H55.6967C55.5972 19.0004 55.5183 19.5406 55.4619 20.0277C55.4056 20.5148 55.3774 20.9905 55.3774 21.4567C55.3774 21.923 55.4056 22.3987 55.4619 22.8858C55.5183 23.3729 55.5972 23.913 55.6967 24.5082C54.3874 23.2781 52.1613 22.6621 49.0185 22.6621C48.207 22.6621 47.5683 22.7019 47.0987 22.7834C46.629 22.8649 46.3698 22.9559 46.3209 23.0583C46.2702 23.1606 46.46 23.2535 46.8864 23.3426C47.3128 23.4297 48.0248 23.4752 49.0204 23.4752C50.3297 23.4752 51.4494 23.57 52.3811 23.7595C53.3129 23.9491 54.0849 24.2561 54.6973 24.6825C55.3079 25.109 55.7568 25.6624 56.0424 26.3447C56.326 27.027 56.4688 27.8686 56.4688 28.8693C56.4688 29.9648 56.2903 30.829 55.9353 31.4659C55.5803 32.1008 55.0637 32.5784 54.3874 32.8949C53.7111 33.2133 52.8827 33.4086 51.9021 33.4825C50.9196 33.5564 49.8038 33.5943 48.5526 33.5943H39.4417C39.5563 32.9992 39.6371 32.459 39.6878 31.9719C39.7367 31.4848 39.763 31.0091 39.763 30.5428C39.763 30.0766 39.7385 29.599 39.6878 29.1138C39.6371 28.6267 39.5563 28.0865 39.4417 27.4914C40.7229 28.7082 42.9339 29.3166 46.0786 29.3166C46.8901 29.3166 47.5288 29.273 47.9985 29.1839C48.4681 29.0967 48.7274 29.002 48.7781 28.8996C48.8269 28.7973 48.6391 28.7063 48.2126 28.6267C47.7862 28.5471 47.0742 28.5054 46.0786 28.5054C44.7843 28.5054 43.6666 28.4106 42.7292 28.2211C41.7899 28.0316 41.0216 27.7245 40.4242 27.2981C39.8268 26.8716 39.3854 26.3182 39.1017 25.6359C38.8162 24.9536 38.6753 24.1177 38.6753 23.1322C38.6753 22.0367 38.8707 21.1724 39.2614 20.5356C39.6521 19.9007 40.2082 19.4231 40.9258 19.1065C41.6434 18.7881 42.515 18.5929 43.5388 18.519C44.5626 18.4451 45.7161 18.4072 46.9953 18.4072H49.8113L49.8075 18.4053Z" fill="black"/>
<path d="M57.7651 33.5944V18.3845C59.2529 18.4793 60.6055 18.5532 61.8247 18.6082C63.0438 18.6631 64.2292 18.6897 65.3826 18.6897C66.536 18.6897 67.7402 18.6631 68.9612 18.6082C70.1804 18.5551 71.5273 18.4793 73.002 18.3845C72.908 18.8451 72.8348 19.2658 72.7803 19.6525C72.7258 20.0391 72.6995 20.4125 72.6995 20.7783C72.6995 21.1441 72.7258 21.5156 72.7803 21.8946C72.8348 22.2737 72.908 22.6926 73.002 23.1512H65.1027V23.9018H68.4991V28.0601H65.1027V28.8106H73.002C72.908 29.2712 72.8348 29.692 72.7803 30.0786C72.7258 30.4652 72.6995 30.8386 72.6995 31.2044C72.6995 31.5702 72.7258 31.9417 72.7803 32.3189C72.8348 32.6979 72.908 33.1244 73.002 33.5963C71.5273 33.4883 70.1804 33.4106 68.9612 33.3632C67.7421 33.3158 66.5492 33.2911 65.3826 33.2911C64.216 33.2911 63.0438 33.3158 61.8247 33.3632C60.6055 33.4106 59.2511 33.4883 57.7651 33.5963V33.5944Z" fill="black"/>
<path d="M44.4406 6.01385L44.1813 5.33343L44.7111 5.12495L44.4293 4.52034L45.145 4.50328L45.1281 3.75653L45.9998 3.96501L46.2252 3.17467L46.8207 3.65229L47.4706 3.14624L47.7506 3.87594L48.5734 3.65987L48.5903 4.40094L49.321 4.42747L49.0918 5.0226L49.5821 5.20644L49.3886 5.89823C49.3886 5.89823 49.7662 5.76556 49.8864 5.68975C50.5026 5.29552 50.7093 4.99417 50.9347 4.73072C51.4325 4.15455 51.4081 4.12991 51.4081 4.12991C51.4081 4.12991 51.3536 4.9411 51.1488 5.51159C50.9629 6.02711 50.2377 7.13019 49.3003 7.61918C48.6823 7.94138 47.3204 8.30528 46.5408 8.22568C45.7612 8.14607 44.5627 7.95465 43.7418 7.21358C43.0448 6.58434 42.7649 6.08397 42.5282 5.32774C42.3779 4.85013 42.3103 4.35166 42.3103 4.35166C42.3103 4.35166 42.9809 5.20455 43.3829 5.47937C44.0761 5.9532 44.4424 6.01764 44.4424 6.01764L44.4406 6.01385Z" fill="#F9F9F9" stroke="black" stroke-width="0.26" stroke-miterlimit="10"/>
<path d="M27.3345 23.3729L27.9864 22.1675L28.6157 23.3729L29.6508 22.6432L29.5794 23.9567L30.9169 23.8107L30.158 24.9062L31.3884 25.4824L30.0847 26.1116L31.0259 27.3531L29.5794 27.0972L29.8612 28.53L28.6382 27.6809L27.9864 29.0702L27.3345 27.6961L26.1774 28.5585L26.3934 27.0972L24.9826 27.3531L25.8881 26.1116L24.5938 25.4824L25.8505 24.9062L25.054 23.7747L26.3934 23.9946L26.2844 22.6072L27.3345 23.3729Z" fill="#FCFAFA" stroke="black" stroke-width="0.19" stroke-miterlimit="10"/>
</svg>
